<svg xmlns="http://www.w3.org/2000/svg" viewBox="0 0 24 24">
  <rect width="24" height="24" rx="6" fill="#25D366"/>
  <path fill="#FFFFFF" d="M12.04 5.5c-3.6 0-6.53 2.92-6.53 6.53 0 1.15.3 2.27.87 3.26L5.5 19l3.83-1c.94.51 2 .78 3.08.78h.01c3.6 0 6.53-2.92 6.53-6.53 0-1.74-.68-3.38-1.91-4.61a6.49 6.49 0 0 0-4.61-1.91.5.5 0 0 0-.02 0Zm3.79 9.29c-.16.45-.94.86-1.3.91-.33.05-.75.07-1.21-.08-.28-.09-.63-.2-1.09-.4-1.91-.83-3.16-2.75-3.25-2.88-.1-.13-.78-1.03-.78-1.97s.49-1.4.67-1.59c.16-.18.36-.22.48-.22.12 0 .24 0 .35.01.11.01.27-.04.42.32.16.38.53 1.32.58 1.41.05.1.08.21.02.34-.06.13-.09.21-.18.32-.09.11-.19.25-.27.33-.09.09-.18.19-.08.37.1.18.44.72.94 1.17.65.58 1.19.76 1.37.84.14.06.3.05.41-.07.14-.15.3-.4.48-.65.13-.18.29-.2.48-.13.19.07 1.19.56 1.4.66.2.1.34.15.39.24.05.1.05.55-.11 1Z"/>
</svg>
