<svg width="88" height="30" viewBox="0 0 88 30" fill="none" xmlns="http://www.w3.org/2000/svg">
                                        <path d="M26.9377 1H6.79542L5.33227 4.86157H25.4748L26.9377 1ZM24.7436 6.81957H4.60105L3.13814 10.6811H23.2808L24.7436 6.81957ZM22.5492 12.5847H2.40654L1 16.4464H21.1427L22.5492 12.5847Z" fill="#00AAFF"></path>
                                        <path d="M83.1026 17.6402V17.7202C84.0153 18.0413 84.8873 18.6033 85.3439 18.9643C86.7551 20.0877 87.3776 21.5725 87.3776 23.4983C87.3776 26.6682 85.6345 28.9549 82.7703 29.6771C81.8987 29.918 80.9852 29.9983 79.2837 29.9983H70.6085V6.80664H78.2874C79.8646 6.80664 80.9441 6.88701 81.8987 7.12784C84.6798 7.85012 86.5056 9.69596 86.5056 12.6246C86.5056 14.1894 85.9252 15.5134 84.9705 16.3965C84.5554 16.7977 83.9741 17.2793 83.1026 17.6402ZM75.4233 20.0877V26.1866H78.744C79.7404 26.1866 80.6534 26.1061 81.3175 25.5045C81.9815 24.9028 82.2722 24.1402 82.2722 23.1369C82.2722 22.3748 82.0648 21.6525 81.6497 21.1307C80.9441 20.2882 80.0725 20.0877 78.5781 20.0877H75.4233ZM75.3822 16.0753H78.08C78.9099 16.0753 79.3248 16.0753 79.7404 15.9552C80.8609 15.634 81.5666 14.6709 81.5666 13.3468C81.5666 11.7821 80.8193 11.0999 79.7404 10.7792C79.2837 10.6586 78.8272 10.6184 77.9136 10.6184H75.3822V16.0753ZM56.7868 29.9983V10.6988H49.8552V6.80664H69.1145L67.7448 10.6988H61.6015V29.9983H56.7868ZM36.5349 29.9983L28.9883 6.80664H34.2825L37.2108 16.8781C38.0554 19.8724 38.506 21.4511 39.0694 23.9556C39.5763 21.5599 39.9142 20.4168 40.8715 17.0414L43.7998 6.80664H48.8683L41.2094 29.9983H36.5349Z" fill="#002882"></path>
                                    </svg>